# xmcd CD database file
#
# Track frame offsets:
#	150
#	16709
#	32036
#	45669
#	68380
#	83778
#	98650
#	113727
#	126997
#	137820
#
# Disc length: 2070 seconds
#
# Revision: 0
# Processed by: cddbd v1.5.2PL0 Copyright (c) Steve Scherf et al.
# Submitted via: CDex 1.70beta2
#
DISCID=7508140a
DTITLE=The Puppini Sisters - Christmas With
DYEAR=2010
DGENRE=Jazz
TTITLE0=Step Into Christmas
TTITLE1=Santa Baby
TTITLE2=Here Comes Santa Claus
TTITLE3=Last Christmas
TTITLE4=Let it Snow
TTITLE5=White Christmas
TTITLE6=All I Want For Christmas
TTITLE7=Mele Kalikimaka
TTITLE8=Winter Wonderland
TTITLE9=O Holy Night
EXTD=YEAR: 2010
EXTT0=
EXTT1=
EXTT2=
EXTT3=
EXTT4=
EXTT5=
EXTT6=
EXTT7=
EXTT8=
EXTT9=
PLAYORDER=
